<svg width="444" height="59" viewBox="0 0 444 59" fill="none" xmlns="http://www.w3.org/2000/svg">
<g clip-path="url(#clip0_5_2)">
<path d="M7.74389 58V50.5402H23.3629C26.2122 50.5402 28.4139 49.7631 29.968 48.209C31.5221 46.603 32.2992 44.4272 32.2992 41.6816C32.2992 38.8324 31.4703 36.5789 29.8126 34.9211C28.1548 33.2634 25.8495 32.4345 22.8967 32.4345H7.74389V24.9747H22.1973C24.9948 24.9747 27.1447 24.3012 28.647 22.9543C30.1493 21.6074 30.9005 19.6647 30.9005 17.1263C30.9005 14.6397 30.1752 12.7488 28.7247 11.4537C27.326 10.1586 25.2538 9.51104 22.5082 9.51104H7.74389V2.0512H24.3731C29.3981 2.0512 33.413 3.32041 36.4177 5.85883C39.4741 8.34544 41.0023 11.7386 41.0023 16.0384C41.0023 18.7322 40.3548 21.0893 39.0597 23.1097C37.8164 25.0783 36.1327 26.6065 34.0087 27.6944C31.8848 28.7823 29.4759 29.3262 26.782 29.3262L27.1706 27.6944C30.0198 27.6944 32.61 28.342 34.9412 29.6371C37.2724 30.8804 39.1115 32.6417 40.4584 34.9211C41.8571 37.2005 42.5565 39.8425 42.5565 42.8472C42.5565 45.9037 41.8312 48.5716 40.3807 50.851C38.982 53.1304 36.9875 54.8917 34.3973 56.135C31.8589 57.3783 28.8542 58 25.3833 58H7.74389ZM-0.182187 58V2.0512H9.91968V58H-0.182187ZM68.3187 58.7771C64.1225 58.7771 60.4185 57.8964 57.2066 56.135C54.0465 54.3737 51.5858 51.9389 49.8245 48.8306C48.0631 45.6705 47.1824 42.0701 47.1824 38.0294C47.1824 33.9886 48.0631 30.44 49.8245 27.3836C51.5858 24.3271 54.0465 21.9441 57.2066 20.2346C60.4185 18.4732 64.1225 17.5925 68.3187 17.5925C72.5666 17.5925 76.2706 18.4732 79.4307 20.2346C82.5908 21.9441 85.0515 24.3271 86.8128 27.3836C88.5742 30.44 89.4549 33.9886 89.4549 38.0294C89.4549 42.0701 88.5483 45.6705 86.7351 48.8306C84.9738 51.9389 82.5131 54.3737 79.353 56.135C76.1929 57.8964 72.5148 58.7771 68.3187 58.7771ZM68.3187 50.9287C70.3908 50.9287 72.2558 50.4106 73.9135 49.3746C75.5713 48.2867 76.8664 46.7843 77.7989 44.8676C78.7314 42.899 79.1976 40.5937 79.1976 37.9517C79.1976 34.0663 78.1615 31.0099 76.0893 28.7823C74.069 26.5547 71.4787 25.4409 68.3187 25.4409C65.1586 25.4409 62.5425 26.5547 60.4703 28.7823C58.3981 31.0099 57.362 34.0663 57.362 37.9517C57.362 40.5937 57.8283 42.899 58.7607 44.8676C59.745 46.7843 61.0401 48.2867 62.6461 49.3746C64.3038 50.4106 66.1947 50.9287 68.3187 50.9287ZM96.6567 58V2.0512H106.448V58H96.6567ZM134.637 58.7771C129.767 58.7771 126.167 57.6374 123.836 55.358C121.556 53.0268 120.417 49.5559 120.417 44.9453V9.35563L130.285 5.70342V45.1784C130.285 47.0952 130.804 48.5198 131.84 49.4523C132.876 50.3847 134.508 50.851 136.735 50.851C137.616 50.851 138.393 50.7992 139.066 50.6956C139.792 50.5402 140.465 50.3588 141.087 50.1516V57.7669C140.465 58.0777 139.584 58.3108 138.445 58.4662C137.305 58.6735 136.036 58.7771 134.637 58.7771ZM112.801 26.0626V18.3696H141.087V26.0626H112.801ZM173.208 58.7771C169.219 58.7771 165.541 58.0777 162.174 56.679C158.858 55.2285 155.957 53.2081 153.471 50.6179C150.984 48.0276 149.067 44.9712 147.72 41.4485C146.373 37.9258 145.7 34.0663 145.7 29.8702C145.7 25.674 146.373 21.8405 147.72 18.3696C149.067 14.8987 150.958 11.894 153.393 9.35563C155.879 6.76541 158.781 4.77094 162.096 3.37222C165.463 1.9735 169.167 1.27414 173.208 1.27414C177.663 1.27414 181.678 2.15481 185.253 3.91616C188.827 5.67751 191.754 8.16413 194.033 11.376C196.365 14.5361 197.789 18.266 198.307 22.5658H188.361C187.739 18.3696 186.056 15.1577 183.31 12.9301C180.564 10.6507 177.223 9.51104 173.286 9.51104C169.815 9.51104 166.784 10.3399 164.194 11.9977C161.604 13.6554 159.584 16.0125 158.133 19.069C156.682 22.0736 155.957 25.6481 155.957 29.7925C155.957 34.0404 156.682 37.7186 158.133 40.8268C159.584 43.8833 161.63 46.2663 164.272 47.9758C166.914 49.6854 169.944 50.5402 173.363 50.5402C177.197 50.5402 180.487 49.4264 183.232 47.1988C185.978 44.9194 187.713 41.7075 188.439 37.5631H198.463C197.841 41.8111 196.365 45.541 194.033 48.7529C191.754 51.9648 188.827 54.4514 185.253 56.2127C181.678 57.9223 177.663 58.7771 173.208 58.7771ZM223.96 58.7771C219.763 58.7771 216.059 57.8964 212.848 56.135C209.688 54.3737 207.227 51.9389 205.465 48.8306C203.704 45.6705 202.823 42.0701 202.823 38.0294C202.823 33.9886 203.704 30.44 205.465 27.3836C207.227 24.3271 209.688 21.9441 212.848 20.2346C216.059 18.4732 219.763 17.5925 223.96 17.5925C228.208 17.5925 231.912 18.4732 235.072 20.2346C238.232 21.9441 240.692 24.3271 242.454 27.3836C244.215 30.44 245.096 33.9886 245.096 38.0294C245.096 42.0701 244.189 45.6705 242.376 48.8306C240.615 51.9389 238.154 54.3737 234.994 56.135C231.834 57.8964 228.156 58.7771 223.96 58.7771ZM223.96 50.9287C226.032 50.9287 227.897 50.4106 229.555 49.3746C231.212 48.2867 232.507 46.7843 233.44 44.8676C234.372 42.899 234.839 40.5937 234.839 37.9517C234.839 34.0663 233.802 31.0099 231.73 28.7823C229.71 26.5547 227.12 25.4409 223.96 25.4409C220.8 25.4409 218.183 26.5547 216.111 28.7823C214.039 31.0099 213.003 34.0663 213.003 37.9517C213.003 40.5937 213.469 42.899 214.402 44.8676C215.386 46.7843 216.681 48.2867 218.287 49.3746C219.945 50.4106 221.836 50.9287 223.96 50.9287ZM265.119 58.7771C262.374 58.7771 259.991 58.2072 257.97 57.0675C256.002 55.876 254.473 54.2701 253.386 52.2497C252.349 50.2293 251.831 47.9499 251.831 45.4115V18.3696H261.622V43.3911C261.622 45.826 262.218 47.665 263.41 48.9083C264.653 50.1516 266.388 50.7733 268.616 50.7733C270.636 50.7733 272.398 50.307 273.9 49.3746C275.454 48.4421 276.672 47.147 277.552 45.4892C278.485 43.7797 278.951 41.8629 278.951 39.7389L279.961 49.2191C278.666 52.1202 276.723 54.4514 274.133 56.2127C271.595 57.9223 268.59 58.7771 265.119 58.7771ZM279.262 58V48.6752H278.951V18.3696H288.82V58H279.262ZM299.195 58V18.3696H308.753V27.6944H308.986V58H299.195ZM327.014 58V32.9785C327.014 30.5436 326.392 28.7046 325.149 27.4613C323.906 26.218 322.092 25.5963 319.709 25.5963C317.637 25.5963 315.772 26.0626 314.115 26.995C312.509 27.9275 311.239 29.2226 310.307 30.8804C309.426 32.5381 308.986 34.4549 308.986 36.6307L307.976 27.1505C309.323 24.2494 311.291 21.9441 313.881 20.2346C316.472 18.4732 319.58 17.5925 323.206 17.5925C327.506 17.5925 330.847 18.8099 333.23 21.2447C335.665 23.6796 336.883 26.9173 336.883 30.9581V58H327.014ZM363.128 58.7771C358.258 58.7771 354.658 57.6374 352.327 55.358C350.047 53.0268 348.908 49.5559 348.908 44.9453V9.35563L358.776 5.70342V45.1784C358.776 47.0952 359.294 48.5198 360.331 49.4523C361.367 50.3847 362.998 50.851 365.226 50.851C366.107 50.851 366.884 50.7992 367.557 50.6956C368.283 50.5402 368.956 50.3588 369.578 50.1516V57.7669C368.956 58.0777 368.075 58.3108 366.936 58.4662C365.796 58.6735 364.527 58.7771 363.128 58.7771ZM341.292 26.0626V18.3696H369.578V26.0626H341.292ZM393.482 58.7771C389.286 58.7771 385.608 57.8964 382.448 56.135C379.34 54.3737 376.905 51.9389 375.143 48.8306C373.434 45.7223 372.579 42.1478 372.579 38.1071C372.579 34.0663 373.434 30.5177 375.143 27.4613C376.905 24.353 379.34 21.9441 382.448 20.2346C385.556 18.4732 389.182 17.5925 393.327 17.5925C397.264 17.5925 400.683 18.4214 403.584 20.0791C406.485 21.6851 408.739 23.9645 410.345 26.9173C411.95 29.8702 412.753 33.3152 412.753 37.2523C412.753 37.9776 412.728 38.651 412.676 39.2727C412.624 39.8943 412.546 40.516 412.443 41.1377H378.64V34.2995H404.905L402.885 36.1644C402.885 32.4345 402.03 29.6371 400.32 27.7721C398.611 25.9071 396.228 24.9747 393.171 24.9747C389.856 24.9747 387.214 26.1144 385.245 28.3938C383.328 30.6732 382.37 33.9627 382.37 38.2625C382.37 42.5105 383.328 45.7742 385.245 48.0535C387.214 50.2811 389.985 51.3949 393.56 51.3949C395.632 51.3949 397.445 51.0064 398.999 50.2293C400.553 49.4523 401.693 48.2608 402.418 46.6548H411.666C410.37 50.3847 408.169 53.3376 405.06 55.5134C402.004 57.6892 398.145 58.7771 393.482 58.7771ZM420.08 58V18.3696H429.638V27.9275H429.871V58H420.08ZM429.871 37.33L428.861 27.9275C429.794 24.5602 431.374 21.9959 433.601 20.2346C435.829 18.4732 438.497 17.5925 441.605 17.5925C442.693 17.5925 443.47 17.6961 443.936 17.9034V27.1505C443.677 27.0468 443.315 26.995 442.848 26.995C442.382 26.9432 441.812 26.9173 441.139 26.9173C437.357 26.9173 434.534 27.7462 432.669 29.4039C430.804 31.0617 429.871 33.7037 429.871 37.33Z" fill="black"/>
</g>
<defs>
<clipPath id="clip0_5_2">
<rect width="444" height="59" fill="white"/>
</clipPath>
</defs>
</svg>
